<?xml version="1.0" encoding="UTF-8" standalone="no"?>
<!DOCTYPE svg PUBLIC "-//W3C//DTD SVG 1.1//EN" "http://www.w3.org/Graphics/SVG/1.1/DTD/svg11.dtd">
<svg width="100%" height="100%" viewBox="0 0 500 500" version="1.1" xmlns="http://www.w3.org/2000/svg" xmlns:xlink="http://www.w3.org/1999/xlink" xml:space="preserve" xmlns:serif="http://www.serif.com/" style="fill-rule:evenodd;clip-rule:evenodd;stroke-linejoin:round;stroke-miterlimit:2;">
    <g transform="matrix(1.03654,0,0,1.02659,-10.9497,-9.12822)">
        <path d="M483.292,87.402C483.292,49.447 452.774,18.633 415.183,18.633L88.321,18.633C50.73,18.633 20.211,49.447 20.211,87.402L20.211,417.432C20.211,455.387 50.73,486.202 88.321,486.202L415.183,486.202C452.774,486.202 483.292,455.387 483.292,417.432L483.292,87.402Z"/>
    </g>
    <g>
        <g transform="matrix(32.2025,0,0.0805703,30.4157,-3451.4,-3105.6)">
            <path d="M114.27,114.539C114.236,114.539 114.208,114.509 114.208,114.473C114.208,113.725 114.207,106.809 114.206,106.059C114.206,106.041 114.213,106.024 114.225,106.012C114.236,106 114.252,105.993 114.269,105.993L114.765,105.993C114.805,105.993 114.843,106.013 114.866,106.048C115.254,106.628 118.571,111.586 119.228,112.568C119.244,112.592 119.272,112.602 119.298,112.593C119.323,112.584 119.341,112.559 119.341,112.53L119.341,106.059C119.341,106.041 119.347,106.024 119.359,106.012C119.371,106 119.387,105.993 119.403,105.993L119.81,105.993C119.844,105.993 119.872,106.022 119.872,106.058C119.875,106.807 119.903,113.759 119.906,114.516C119.906,114.533 119.9,114.55 119.888,114.563C119.876,114.575 119.86,114.582 119.843,114.582C119.738,114.581 119.527,114.579 119.422,114.578C119.383,114.578 119.346,114.557 119.323,114.524C118.932,113.951 115.53,108.971 114.865,107.997C114.85,107.974 114.822,107.965 114.796,107.973C114.77,107.982 114.753,108.008 114.753,108.036C114.753,109.085 114.753,113.855 114.753,114.473C114.753,114.49 114.746,114.507 114.735,114.519C114.723,114.532 114.707,114.539 114.691,114.539L114.27,114.539Z" style="fill:white;fill-rule:nonzero;"/>
        </g>
        <g transform="matrix(32.1777,0,0.0801628,30.2618,-3641.13,-3089.28)">
            <path d="M114.853,107.827C114.838,107.805 114.83,107.778 114.83,107.751C114.831,107.531 114.833,106.505 114.834,106.057C114.834,106.028 114.851,106.003 114.877,105.994C114.903,105.985 114.931,105.995 114.947,106.019C115.571,106.974 118.602,111.607 119.228,112.564C119.243,112.588 119.271,112.598 119.297,112.589C119.323,112.58 119.341,112.555 119.341,112.526L119.341,106.059C119.341,106.041 119.347,106.025 119.359,106.012C119.371,106 119.387,105.993 119.403,105.993L119.785,105.993C119.819,105.993 119.847,106.022 119.847,106.059C119.847,106.811 119.847,113.764 119.847,114.517C119.847,114.553 119.819,114.583 119.785,114.583C119.686,114.583 119.496,114.584 119.396,114.585C119.355,114.585 119.317,114.564 119.294,114.529C118.882,113.907 115.178,108.317 114.853,107.827Z" style="fill:white;fill-rule:nonzero;"/>
        </g>
    </g>
</svg>
