<?xml version="1.0" encoding="UTF-8" standalone="no"?>
<!DOCTYPE svg PUBLIC "-//W3C//DTD SVG 1.1//EN" "http://www.w3.org/Graphics/SVG/1.1/DTD/svg11.dtd">
<svg width="100%" height="100%" viewBox="0 0 500 500" version="1.1" xmlns="http://www.w3.org/2000/svg" xmlns:xlink="http://www.w3.org/1999/xlink" xml:space="preserve" xmlns:serif="http://www.serif.com/" style="fill-rule:evenodd;clip-rule:evenodd;stroke-linejoin:round;stroke-miterlimit:2;">
    <g transform="matrix(1.07972,0,0,1.06936,-21.8226,-19.9252)">
        <path d="M483.292,87.402C483.292,49.447 452.774,18.633 415.183,18.633L88.321,18.633C50.73,18.633 20.211,49.447 20.211,87.402L20.211,417.432C20.211,455.387 50.73,486.202 88.321,486.202L415.183,486.202C452.774,486.202 483.292,455.387 483.292,417.432L483.292,87.402Z"/>
    </g>
    <g transform="matrix(1.04167,0,0,1.04167,-10.4167,-10.4167)">
        <g transform="matrix(32.2025,0,0.0805703,30.4157,-3451.4,-3105.6)">
            <path d="M114.268,114.539C114.235,114.539 114.208,114.51 114.208,114.476C114.208,113.74 114.207,106.794 114.206,106.056C114.206,106.039 114.213,106.023 114.224,106.011C114.235,105.999 114.25,105.993 114.266,105.993L114.768,105.993C114.806,105.993 114.842,106.013 114.865,106.046C115.246,106.616 118.586,111.608 119.233,112.575C119.248,112.597 119.275,112.607 119.299,112.599C119.324,112.59 119.341,112.566 119.341,112.538L119.341,106.056C119.341,106.039 119.347,106.023 119.358,106.011C119.37,105.999 119.385,105.993 119.401,105.993C119.503,105.993 119.71,105.993 119.812,105.993C119.845,105.993 119.872,106.021 119.872,106.055C119.875,106.791 119.903,113.774 119.906,114.518C119.906,114.535 119.9,114.552 119.889,114.564C119.877,114.576 119.862,114.582 119.846,114.582C119.74,114.581 119.524,114.579 119.419,114.578C119.382,114.578 119.346,114.558 119.324,114.526C118.939,113.962 115.516,108.949 114.861,107.991C114.846,107.969 114.819,107.959 114.794,107.968C114.77,107.976 114.753,108.001 114.753,108.028C114.753,109.061 114.753,113.867 114.753,114.475C114.753,114.492 114.747,114.508 114.735,114.52C114.724,114.532 114.709,114.539 114.693,114.539C114.588,114.539 114.372,114.539 114.268,114.539Z" style="fill:white;fill-rule:nonzero;"/>
        </g>
        <g transform="matrix(32.1777,0,0.0801628,30.2618,-3641.13,-3089.28)">
            <path d="M114.852,107.826C114.838,107.804 114.83,107.779 114.83,107.753C114.831,107.535 114.833,106.493 114.834,106.049C114.834,106.021 114.851,105.996 114.875,105.988C114.9,105.98 114.927,105.99 114.942,106.012C115.558,106.954 118.615,111.627 119.232,112.571C119.247,112.594 119.274,112.603 119.299,112.595C119.324,112.587 119.341,112.562 119.341,112.534L119.341,106.056C119.341,106.04 119.347,106.023 119.358,106.011C119.37,105.999 119.385,105.993 119.401,105.993L119.787,105.993C119.82,105.993 119.847,106.021 119.847,106.056C119.847,106.795 119.847,113.779 119.847,114.519C119.847,114.554 119.82,114.583 119.787,114.583C119.689,114.583 119.493,114.584 119.393,114.585C119.354,114.585 119.318,114.565 119.295,114.531C118.89,113.92 115.171,108.307 114.852,107.826Z" style="fill:white;fill-rule:nonzero;"/>
        </g>
    </g>
</svg>
